<svg width="18" height="19" viewBox="0 0 18 19" fill="none" xmlns="http://www.w3.org/2000/svg">
<path d="M5.65 11.4399L10.94 6.14989C11.0339 6.05524 11.1617 6.00199 11.295 6.00199C11.4283 6.00199 11.5561 6.05524 11.65 6.14989L12.35 6.84989C12.4447 6.94378 12.4979 7.07157 12.4979 7.20489C12.4979 7.33821 12.4447 7.46601 12.35 7.55989L7.06 12.8499C6.96612 12.9445 6.83832 12.9978 6.705 12.9978C6.57168 12.9978 6.44389 12.9445 6.35 12.8499L5.65 12.1499C5.55534 12.056 5.5021 11.9282 5.5021 11.7949C5.5021 11.6616 5.55534 11.5338 5.65 11.4399ZM18 5.15989V5.49989C18.0008 6.56598 17.5761 7.5883 16.82 8.33989L14 11.1699C13.4739 11.691 12.6261 11.691 12.1 11.1699L12 11.0599C11.8094 10.8655 11.8094 10.5543 12 10.3599L15.44 6.91989C15.8071 6.53921 16.0084 6.02865 16 5.49989V5.15989C16.0004 4.62685 15.788 4.11569 15.41 3.73989L14.76 3.08989C14.3842 2.71185 13.873 2.49947 13.34 2.49989H13C12.467 2.49947 11.9558 2.71185 11.58 3.08989L8.14 6.49989C7.94558 6.69046 7.63442 6.69046 7.44 6.49989L7.33 6.38989C6.80889 5.86375 6.80889 5.01603 7.33 4.48989L10.16 1.64989C10.9165 0.90481 11.9382 0.491088 13 0.499894H13.34C14.4012 0.499059 15.4192 0.919939 16.17 1.66989L16.83 2.32989C17.58 3.08068 18.0008 4.09871 18 5.15989ZM9.86 12.4999C10.0544 12.3093 10.3656 12.3093 10.56 12.4999L10.67 12.6099C11.1911 13.136 11.1911 13.9838 10.67 14.5099L7.82 17.3599C7.06679 18.0964 6.05344 18.5061 5 18.4999H4.66C3.59882 18.5007 2.58079 18.0798 1.83 17.3299L1.17 16.6699C0.422494 15.9216 0.00181506 14.9076 1.25758e-06 13.8499V13.4999C-0.000843492 12.4338 0.423922 11.4115 1.18 10.6599L4 7.82989C4.52614 7.30878 5.37386 7.30878 5.9 7.82989L6.01 7.93989C6.20057 8.13432 6.20057 8.44547 6.01 8.63989L2.59 12.0799C2.21196 12.4557 1.99958 12.9668 2 13.4999V13.8399C1.99958 14.3729 2.21196 14.8841 2.59 15.2599L3.24 15.9099C3.6158 16.2879 4.12696 16.5003 4.66 16.4999H5C5.53651 16.503 6.05177 16.2904 6.43 15.9099L9.86 12.4999Z" fill="#333333"/>
</svg>
