<svg width="20" height="15" viewBox="0 0 20 15" fill="none" xmlns="http://www.w3.org/2000/svg">
<path d="M19.5 2.5H19.41C19.1477 2.5011 18.8963 2.60526 18.71 2.79L16 5.5V2.5C16 1.39543 15.1046 0.5 14 0.5H2C0.89543 0.5 0 1.39543 0 2.5V12.5C0 13.6046 0.89543 14.5 2 14.5H14C15.1046 14.5 16 13.6046 16 12.5V9.5L18.71 12.21C18.8963 12.3947 19.1477 12.4989 19.41 12.5H19.5C19.7761 12.5 20 12.2761 20 12V3C20 2.72386 19.7761 2.5 19.5 2.5ZM3.5 6.38C3.22386 6.38 3 6.15614 3 5.88V5.12C3 4.84386 3.22386 4.62 3.5 4.62H7.5C7.77614 4.62 8 4.84386 8 5.12V5.88C8 6.15614 7.77614 6.38 7.5 6.38H3.5Z" fill="#333333"/>
</svg>
